<svg xmlns="http://www.w3.org/2000/svg" xmlns:xlink="http://www.w3.org/1999/xlink" width="686" height="195" viewBox="0 0 686 195">
  <defs>
    <clipPath id="clip-Artboard_6">
      <rect width="686" height="195"/>
    </clipPath>
  </defs>
  <g id="Artboard_6" data-name="Artboard – 6" clip-path="url(#clip-Artboard_6)">
    <rect width="686" height="195" fill="#fff"/>
    <g id="Group_184" data-name="Group 184" transform="translate(-320 -771)">
      <g id="Union_1" data-name="Union 1" transform="translate(544 1532)" fill="#f7f9f2">
        <path d="M 403.6911315917969 -592.0001831054688 L -176.6905364990234 -592.0001831054688 C -181.7278747558594 -592.0001831054688 -186.6140441894531 -592.9849853515625 -191.2132110595703 -594.9271850585938 C -195.6559600830078 -596.8033447265625 -199.6461181640625 -599.4894409179688 -203.0728759765625 -602.9108276367188 C -206.4995422363281 -606.3320922851563 -209.1897125244141 -610.3158569335938 -211.0687866210938 -614.751220703125 C -213.0138702392578 -619.3428344726563 -214.0001220703125 -624.2208251953125 -214.0001220703125 -629.249755859375 C -214.0001220703125 -634.2787475585938 -213.0138702392578 -639.15673828125 -211.0687866210938 -643.7484130859375 C -209.1897125244141 -648.1840209960938 -206.4995422363281 -652.1678466796875 -203.0728759765625 -655.5891723632813 C -199.6461181640625 -659.0106811523438 -195.6559600830078 -661.6968383789063 -191.2132110595703 -663.5730590820313 C -186.6140441894531 -665.515380859375 -181.7278747558594 -666.500244140625 -176.6905364990234 -666.500244140625 L 36.88162612915039 -666.500244140625 L 37.88162612915039 -666.500244140625 L 37.88162612915039 -667.500244140625 C 37.88162612915039 -677.6929321289063 39.88071060180664 -687.5802612304688 43.82345962524414 -696.8875122070313 C 45.71846008300781 -701.3609008789063 48.06404495239258 -705.6756591796875 50.7950439453125 -709.7117309570313 C 53.50029373168945 -713.7098388671875 56.6070442199707 -717.469482421875 60.02912902832031 -720.8863525390625 C 63.45121002197266 -724.3031616210938 67.216796875 -727.4051513671875 71.22104644775391 -730.1063232421875 C 75.26354217529297 -732.8331909179688 79.58512878417969 -735.1751708984375 84.06562805175781 -737.0673217773438 C 93.38771057128906 -741.004150390625 103.2907943725586 -743.0003051757813 113.4997940063477 -743.0003051757813 C 123.7087936401367 -743.0003051757813 133.6118774414063 -741.004150390625 142.9339599609375 -737.0673217773438 C 147.4144592285156 -735.1751708984375 151.7360382080078 -732.8331909179688 155.7785491943359 -730.1063232421875 C 159.7827911376953 -727.4051513671875 163.5483703613281 -724.3031616210938 166.970458984375 -720.8863525390625 C 170.3925476074219 -717.469482421875 173.4992980957031 -713.7098388671875 176.2045440673828 -709.7117309570313 C 178.935546875 -705.6756591796875 181.2811279296875 -701.3609008789063 183.1761322021484 -696.8875122070313 C 187.1188812255859 -687.5802612304688 189.1179656982422 -677.6929321289063 189.1179656982422 -667.500244140625 L 189.1179656982422 -666.500244140625 L 190.1179656982422 -666.500244140625 L 403.6911315917969 -666.500244140625 C 408.7284545898438 -666.500244140625 413.6144714355469 -665.515380859375 418.213623046875 -663.5730590820313 C 422.6562194824219 -661.6968383789063 426.6463012695313 -659.0106811523438 430.0728759765625 -655.5891723632813 C 433.4994506835938 -652.1678466796875 436.1895446777344 -648.1840209960938 438.0684509277344 -643.7484130859375 C 440.0134582519531 -639.1567993164063 440.9997253417969 -634.2787475585938 440.9997253417969 -629.249755859375 C 440.9997253417969 -624.2207641601563 440.0134582519531 -619.3428344726563 438.0684509277344 -614.751220703125 C 436.1895446777344 -610.3157348632813 433.4994506835938 -606.3320922851563 430.0729675292969 -602.9108276367188 C 426.6463012695313 -599.4894409179688 422.6562194824219 -596.8033447265625 418.213623046875 -594.9271850585938 C 413.6145324707031 -592.9849853515625 408.7284545898438 -592.0001831054688 403.6911315917969 -592.0001831054688 Z" stroke="none"/>
        <path d="M 403.6911315917969 -593.0001831054688 C 408.5940551757813 -593.0001831054688 413.3493041992188 -593.95849609375 417.8245544433594 -595.848388671875 C 422.1480407714844 -597.6742553710938 426.0312194824219 -600.2885131835938 429.3663635253906 -603.618408203125 C 432.7012023925781 -606.9482421875 435.3193054199219 -610.8250732421875 437.147705078125 -615.141357421875 C 439.0401306152344 -619.6087646484375 439.9997253417969 -624.35546875 439.9997253417969 -629.249755859375 C 439.9997253417969 -634.1439819335938 439.0401306152344 -638.8908081054688 437.147705078125 -643.3583374023438 C 435.3193054199219 -647.6747436523438 432.7012023925781 -651.5516357421875 429.3663024902344 -654.881591796875 C 426.0312194824219 -658.211669921875 422.14794921875 -660.8259887695313 417.8245544433594 -662.65185546875 C 413.3492126464844 -664.5419311523438 408.5940551757813 -665.500244140625 403.6911315917969 -665.500244140625 L 190.1179656982422 -665.500244140625 L 188.1179656982422 -665.500244140625 L 188.1179656982422 -667.500244140625 C 188.1179656982422 -677.5581665039063 186.1454620361328 -687.3142700195313 182.25537109375 -696.4974365234375 C 180.3855438232422 -700.9113159179688 178.0711212158203 -705.1687622070313 175.3762969970703 -709.1514282226563 C 172.706787109375 -713.0967407226563 169.6408843994141 -716.8068237304688 166.2638702392578 -720.1786499023438 C 162.8867950439453 -723.5505981445313 159.1708831787109 -726.6117553710938 155.2192993164063 -729.2772216796875 C 151.2303009033203 -731.9680786132813 146.9660491943359 -734.279052734375 142.5449676513672 -736.1461791992188 C 133.3466339111328 -740.0306396484375 123.574462890625 -742.0003051757813 113.4997940063477 -742.0003051757813 C 103.4251251220703 -742.0003051757813 93.65296173095703 -740.0306396484375 84.45462799072266 -736.1461791992188 C 80.03354644775391 -734.279052734375 75.76929473876953 -731.9680786132813 71.78029632568359 -729.2772216796875 C 67.82871246337891 -726.6117553710938 64.11279296875 -723.5505981445313 60.73571014404297 -720.1786499023438 C 57.35871124267578 -716.8068237304688 54.29279327392578 -713.0967407226563 51.62329483032227 -709.1514282226563 C 48.92845916748047 -705.1687622070313 46.61404418945313 -700.9113159179688 44.74420928955078 -696.4974365234375 C 40.8541259765625 -687.3142700195313 38.88162612915039 -677.5581665039063 38.88162612915039 -667.500244140625 L 38.88162612915039 -665.500244140625 L 36.88162612915039 -665.500244140625 L -176.6905364990234 -665.500244140625 C -181.5935363769531 -665.500244140625 -186.3487091064453 -664.5419311523438 -190.8242034912109 -662.65185546875 C -195.147705078125 -660.825927734375 -199.0310363769531 -658.211669921875 -202.3662872314453 -654.8814697265625 C -205.7012939453125 -651.5516357421875 -208.3194580078125 -647.6746826171875 -210.14794921875 -643.3583374023438 C -212.0405426025391 -638.8907470703125 -213.0001220703125 -634.1439819335938 -213.0001220703125 -629.249755859375 C -213.0001220703125 -624.3555908203125 -212.0405426025391 -619.6088256835938 -210.14794921875 -615.141357421875 C -208.3194580078125 -610.8250732421875 -205.7013702392578 -606.9482421875 -202.3662872314453 -603.6184692382813 C -199.0311279296875 -600.2885131835938 -195.1477966308594 -597.6742553710938 -190.8242034912109 -595.848388671875 C -186.3487854003906 -593.95849609375 -181.5935363769531 -593.0001831054688 -176.6905364990234 -593.0001831054688 L 403.6911315917969 -593.0001831054688 M 403.6911315917969 -591.0001831054688 L -176.6905364990234 -591.0001831054688 C -197.8481292724609 -591.0001831054688 -215.0001220703125 -608.1249389648438 -215.0001220703125 -629.249755859375 C -215.0001220703125 -650.3746337890625 -197.8481292724609 -667.500244140625 -176.6905364990234 -667.500244140625 L 36.88162612915039 -667.500244140625 C 36.88162612915039 -709.7500610351563 71.18479156494141 -744.0003051757813 113.4997940063477 -744.0003051757813 C 155.8147888183594 -744.0003051757813 190.1179656982422 -709.7500610351563 190.1179656982422 -667.500244140625 L 403.6911315917969 -667.500244140625 C 424.8486328125 -667.500244140625 441.9997253417969 -650.3746337890625 441.9997253417969 -629.249755859375 C 441.9997253417969 -608.1249389648438 424.8486328125 -591.0001831054688 403.6911315917969 -591.0001831054688 Z" stroke="none" fill="#8cb808"/>
      </g>
      <text id="訂購蔬果箱的好處_" data-name="訂購蔬果箱的好處?" transform="translate(499 920)" fill="#8fc31f" font-size="40" font-family="jf-openhuninn-1.1"><tspan x="0" y="0">訂購蔬果箱的好處?</tspan></text>
      <g id="Group_159" data-name="Group 159" transform="translate(635.292 804)">
        <g id="Group_153" data-name="Group 153" transform="translate(-4 1)">
          <path id="Path_20" data-name="Path 20" d="M32.793,71.21a2.033,2.033,0,0,1-.774-1.825c-.012-1.688-.008-3.377,0-5.064,0-.24-.106-.506.134-.72a.321.321,0,0,0,.023-.317c-.3-.352-.153-.761-.155-1.138q-.022-3.862,0-7.724a3.456,3.456,0,0,1,.135-1.4,1.125,1.125,0,0,0-.088-1.054c-.111-.155-.047-.329-.05-.493-.009-.6,0-1.2,0-1.8a6.405,6.405,0,0,1-1.133-.411c-.151.158-.064.368-.064.556q-.008,9.4-.009,18.8a1.38,1.38,0,0,1-.137.8,1.124,1.124,0,0,1-1.763.307,1.547,1.547,0,0,1-.328-1.06c0-.944,0-1.888,0-2.833,0-1.4.024-2.8-.011-4.2-.016-.676.368-1.334.163-1.983a6.8,6.8,0,0,1-.143-2,1.34,1.34,0,0,1,.146-.971.716.716,0,0,0,.007-.584,10.157,10.157,0,0,1-.162-2.766c.341-.611.04-1.218.012-1.832-.044-.943-.012-1.888-.012-2.861a3.789,3.789,0,0,0-1.363-.422V67.867l-.593.594h-1.1a2.905,2.905,0,0,1-.549-1.573q.006-5.107.005-10.213a1.007,1.007,0,0,1,.127-.639.88.88,0,0,0,.024-.742,3.6,3.6,0,0,1-.147-1.654c-.017-2.059-.007-4.12-.007-6.207a5.984,5.984,0,0,1-1.247-.453c-.216.224-.122.461-.122.671q-.01,9.313.005,18.626a.961.961,0,0,1-.469.992,1.089,1.089,0,0,1-1.23.011c-.194-.143-.486-.574-.356-.708.309-.316.037-.581-.039-.81a2.96,2.96,0,0,1-.15-.965c0-1.917.023-3.835-.011-5.751a4.105,4.105,0,0,1,.376-1.652c.256-.632.254-.687-.364-1.011,0-1.02,0-2.049,0-3.076,0-.161-.075-.348.1-.47a.193.193,0,0,0,.06-.23,1.9,1.9,0,0,1-.17-.876c.05-.264.234-.491.177-.786a23.983,23.983,0,0,1-.171-4.306c0-.313-.146-.434-.446-.489a6.677,6.677,0,0,1-.906-.3v19.6l-.625.625a3.093,3.093,0,0,1-1.074-.145.929.929,0,0,1-.53-.744,1.289,1.289,0,0,1,.1-1.06.512.512,0,0,0,.033-.407,2.957,2.957,0,0,1,.005-2.093.223.223,0,0,0,0-.169,2.388,2.388,0,0,1-.023-1.667,1.511,1.511,0,0,0-.127-1.224c-.107-.154-.017-.446-.017-.673V45.19l-1.2-.458v.9c0,5.693-.008,11.388.015,17.081a12.783,12.783,0,0,0-.185,1.3c.013.111-.083.139-.121.209-.2.366-.616.323-.927.461-.254.112-.5-.139-.719-.295a4.464,4.464,0,0,1-.458-.45V43.965l-2.041-.6V62.527c-.091.09-.153.15-.212.212a.963.963,0,0,1-.77.4,1.21,1.21,0,0,1-.868-.549,2.22,2.22,0,0,1-.426-1.2c.048-.969.007-1.944.02-2.918,0-.238-.076-.485.133-.722a.636.636,0,0,0,.02-.573,3.092,3.092,0,0,1-.151-1.567q-.02-5.021,0-10.042a3.682,3.682,0,0,1,.139-1.485.921.921,0,0,0-.086-.892c-.1-.133-.058-.374-.084-.612l-2-.586V61.331c-.25.173-.345.52-.706.451-.24-.046-.45.2-.73.02-.114-.075-.353-.058-.411-.217-.072-.2-.272-.343-.248-.585.1-1.043-.245-2.055-.186-3.1.066-1.141,0-2.288.021-3.432.005-.351-.1-.714.15-1.056a.622.622,0,0,0,0-.578c-.262-.371-.147-.763-.15-1.142-.013-2.059-.02-4.12,0-6.179a6.481,6.481,0,0,1,.145-2.168,4.067,4.067,0,0,0,.023-1.109c.013-.336-.32-.6-.147-.952-.274-.1-.478-.316-.775-.269-.257.042-.422-.3-.727-.155-.161.142-.066.355-.066.538q-.01,8.455-.009,16.909a1.343,1.343,0,0,1-.078.739c-.165.285-.277.643-.653.671-.461.035-.979.118-1.334-.274a1.535,1.535,0,0,1-.336-1.059c.005-.829,0-1.659,0-2.489,0-1.03-.013-2.059.007-3.089A2.262,2.262,0,0,1,1.79,51.49a.581.581,0,0,0,0-.5,3.055,3.055,0,0,1-.153-1.565c-.017-2.118.032-4.236-.023-6.352-.032-1.217.155-2.411.194-3.619a2.053,2.053,0,0,1,.552-1.141,7.1,7.1,0,0,1,1.633-1.24c.692-.5,1.445-.925,2.169-1.384.047-.029.106-.064.123-.111.266-.707.987-.9,1.506-1.315a4.894,4.894,0,0,1,.661-.475,4.588,4.588,0,0,1,1.256-.7,3.724,3.724,0,0,0,1.51-.9,5.4,5.4,0,0,1,.712-.557,4.832,4.832,0,0,0,1.1-.892,2.3,2.3,0,0,1,1.346-.894.47.47,0,0,0,.253-.2c.287-.4.775-.538,1.1-.9a.805.805,0,0,1,.57-.245.721.721,0,0,0,.771-.518c.1-.28.341-.312.537-.458a11.921,11.921,0,0,1-3.121-2.039,16.175,16.175,0,0,1-1.868-2.05,2.332,2.332,0,0,1-.278-.491,7.111,7.111,0,0,0-.748-1.319,7.578,7.578,0,0,1-1.019-2.5c-.236-.732-.371-1.5-.671-2.212a.454.454,0,0,1-.023-.246,9.063,9.063,0,0,0-.209-1.988c-.015-.392-.276-.868-.107-1.2A2.075,2.075,0,0,0,9.655,12c-.125-.479-.055-.94-.135-1.4-.071-.407.209-.738.183-1.131s-.005-.8,0-1.2a.31.31,0,0,1,.031-.158,3.323,3.323,0,0,0,.32-1.845c.02-.348-.112-.7.139-1.06.183-.265-.138-.726.2-1.028-.111-.623.261-1.2.173-1.818a1.385,1.385,0,0,1,.264-1A31.076,31.076,0,0,1,14.7,2.764a17.362,17.362,0,0,1,3.288,1.612c.5.368,1.145.556,1.67.927.043.029.116.028.142.066A6.085,6.085,0,0,0,21.793,6.8c.341.221.556.625.993.695.612.663,1.391,1.139,2,1.816a21.656,21.656,0,0,1,3.271,5c.088.75.41,1.438.56,2.178.194.955.055,1.9.17,2.951.316-.316.582-.581.848-.848A10.783,10.783,0,0,1,31.9,16.8a3.037,3.037,0,0,0,.436-.4c.471-.42.817-1,1.494-1.162.1-.023.166-.151.245-.234a6.2,6.2,0,0,1,2.843-1.632c.076-.023.165.019.232-.067.671-.849,1.727-.932,2.639-1.289.234-.092.479-.289.781-.193s.525-.108.786-.171c.84-.2,1.7-.311,2.541-.475a2.455,2.455,0,0,1,1.813.129c.063.039.169.007.254.005a5.774,5.774,0,0,1,2.792.514c.565-.082.944.412,1.422.485a7.516,7.516,0,0,1,1.334.526,3.48,3.48,0,0,1,1.251.935.484.484,0,0,1-.416.3,24.039,24.039,0,0,0-2.884.707,13.387,13.387,0,0,0-1.372.416,13.28,13.28,0,0,1-1.362.445c-.445.15-.908.283-1.346.474-.653.285-1.348.475-2,.761-1.212.53-2.423,1.064-3.6,1.662a32.922,32.922,0,0,0-4.007,2.342,31.809,31.809,0,0,0-3.014,2.283c-.414.37-.837.732-1.249,1.109a.43.43,0,0,0-.119.584c.229.1.321-.083.422-.2a20.2,20.2,0,0,1,2.79-2.4,22.312,22.312,0,0,1,3.03-1.992c1.383-.786,2.789-1.545,4.24-2.195,1.034-.461,2.091-.886,3.161-1.279,1.2-.438,2.4-.842,3.611-1.226.735-.233,1.484-.426,2.225-.635a14.326,14.326,0,0,0,1.85-.506,1.444,1.444,0,0,1,.524-.009c.217.428-.06.8-.173,1.165-.288.935-.632,1.853-.969,2.773-.082.222-.24.415-.336.633-.256.58-.461,1.186-.752,1.747a31.62,31.62,0,0,1-2.12,3.5A10.811,10.811,0,0,1,47.254,26.2c-.333.3-.489.736-.846,1.026a25.18,25.18,0,0,1-3.413,2.543c-.091.051-.194.082-.38.158.731.217,1.387.43,2.054.6,1.059.278,2.129.513,3.183.813.54.154,1.1.241,1.639.4.9.264,1.828.4,2.721.682.724.229.92.478.92,1.234q0,10.857,0,21.715a1.141,1.141,0,0,1-.6,1.13,23.106,23.106,0,0,0-2,1.607c-.825.64-1.683,1.239-2.453,1.947-.5.091-.676.612-1.122.811a5.229,5.229,0,0,0-1.032.826,3.862,3.862,0,0,1-.977.747c-.423.151-.513.7-.993.712a13.432,13.432,0,0,1-1.8,1.454c-.881.712-1.727,1.48-2.664,2.107-.411.274-.765.615-1.157.9-1.015.742-1.971,1.567-3.006,2.288a9.512,9.512,0,0,0-.948.8A1.825,1.825,0,0,1,32.793,71.21ZM50.712,54.856c.086-.584-.119-1.153.177-1.687a.581.581,0,0,0,0-.5,1.91,1.91,0,0,1-.151-1.224,38.763,38.763,0,0,1,.149-5.5,2,2,0,0,0-.157-1.384,7.173,7.173,0,0,1,.163-2.334.737.737,0,0,0,0-.424,4.4,4.4,0,0,1,0-2.431c.023-.108.044-.277-.013-.331-.257-.237-.142-.532-.149-.8-.017-.676-.005-1.352-.005-2.109L34.456,49.448v18.22a3.363,3.363,0,0,1,1.1-.787,3.164,3.164,0,0,0,1.259-.889,3.262,3.262,0,0,1,.98-.751,6.026,6.026,0,0,0,1.356-1.064,18.45,18.45,0,0,1,2.113-1.939c.218-.159.432-.4.672-.432a.844.844,0,0,0,.73-.573.536.536,0,0,1,.206-.253,6.526,6.526,0,0,0,1.492-1.157.5.5,0,0,1,.216-.106,2.688,2.688,0,0,0,1.443-1.034A2.462,2.462,0,0,1,46.936,58a1.338,1.338,0,0,0,.782-.624,2.771,2.771,0,0,1,.84-.781c.295-.222.641-.276.928-.494C49.97,55.731,50.242,55.174,50.712,54.856ZM27.961,29.708a5.865,5.865,0,0,0-1.366,2.05,4.361,4.361,0,0,0-.388,1.718,8.777,8.777,0,0,0,.222,3.414c.605,0,1.206.017,1.806-.005s1.134.3,1.731.178c.649-.133,1.256.261,1.9.17.27.281.653.075.944.209a20.091,20.091,0,0,0,2.047.653A28.358,28.358,0,0,1,38,39.218a8.419,8.419,0,0,1,2.84,1.947c.68-.558,1.324-1.122,2.007-1.644.793-.608,1.508-1.318,2.3-1.92a14.5,14.5,0,0,1,1.147-.961c.367-.221.586-.609.965-.766s.521-.565.929-.661c.431-.1.494-.613.833-.842.1-.067.3.047.3-.261-.278.254-.288-.126-.509-.147a35.269,35.269,0,0,1-3.67-.886,26.278,26.278,0,0,1-2.555-.656c-.79-.25-1.6-.415-2.4-.62a6.989,6.989,0,0,0-2.243-.415c-.362.024-.659.244-1.046.2a13.764,13.764,0,0,1-2.594-.166c-.406-.127-.861-.07-1.3-.158-.766-.153-1.522-.332-2.268-.553A21.4,21.4,0,0,1,27.961,29.708Zm-7.695-1.248c-.154.24-.45.336-.679.522-.862.7-1.829,1.255-2.734,1.9-.726.514-1.509.953-2.2,1.508-.872.7-1.852,1.233-2.729,1.92-.548.431-1.2.734-1.738,1.172-.868.7-1.849,1.236-2.729,1.92-.6.462-1.251.846-1.944,1.309a11.8,11.8,0,0,0,2.559.762,44.812,44.812,0,0,0,4.44,1.5c.613.181,1.181.474,1.8.624a7.012,7.012,0,0,0,1.087.261c.253.02.233-.344.388-.469.09-.072.242-.091.347-.191.051-.048.2-.024.22-.068.265-.629.862-.956,1.287-1.438a2.535,2.535,0,0,1,1.3-.8,1.929,1.929,0,0,0,.846-.458,2.315,2.315,0,0,1,1.042-.578,3.616,3.616,0,0,1,1.259-.269.641.641,0,0,0,.378-.127,1.525,1.525,0,0,1,.853-.229c.308.025.439-.146.459-.449a2.661,2.661,0,0,0,0-.343,6.6,6.6,0,0,0-.17-2.245,11.026,11.026,0,0,1,.171-3.018,6.227,6.227,0,0,1,.471-2.224c-.71.234-1.331-.193-2.01-.129A5.031,5.031,0,0,1,20.266,28.461Z" transform="translate(-1.611 -1.354)" fill="#8cb808"/>
        </g>
      </g>
    </g>
  </g>
</svg>
