<svg xmlns="http://www.w3.org/2000/svg" xmlns:xlink="http://www.w3.org/1999/xlink" width="638" height="414" viewBox="0 0 638 414">
  <defs>
    <clipPath id="clip-Artboard_4">
      <rect width="638" height="414"/>
    </clipPath>
  </defs>
  <g id="Artboard_4" data-name="Artboard – 4" clip-path="url(#clip-Artboard_4)">
    <rect width="638" height="414" fill="#fff"/>
    <g id="Group_122" data-name="Group 122" transform="translate(7.447 10.454)">
      <g id="Group_120" data-name="Group 120" transform="translate(0 0)">
        <g id="Group_119" data-name="Group 119">
          <path id="Path_14" data-name="Path 14" d="M408.035,445.427c-3.616-2.518-4.315-6.292-4.345-10.245-.068-9.479-.045-18.958.015-28.429.008-1.345-.594-2.841.752-4.044a1.8,1.8,0,0,0,.128-1.782c-1.684-1.977-.857-4.27-.872-6.389q-.124-21.682,0-43.365c.008-2.608-.361-5.187.752-7.863a6.332,6.332,0,0,0-.5-5.923c-.624-.872-.263-1.849-.278-2.766-.053-3.368-.015-6.735-.015-10.088-2.1-.849-4.4-1.067-6.359-2.308-.857.879-.369,2.06-.369,3.119Q396.9,378.1,396.9,430.867c0,1.5.18,2.932-.767,4.51-2.15,3.578-7.156,4.781-9.9,1.729a8.754,8.754,0,0,1-1.842-5.961c.03-5.3.007-10.6.007-15.9,0-7.87.135-15.748-.052-23.61-.1-3.8,2.059-7.487.909-11.132-1.188-3.758-.722-7.472-.8-11.2-.045-1.8-.534-3.683.827-5.45.541-.707.406-2.308.03-3.285-1.947-5.1-.383-10.373-.91-15.522,1.917-3.428.225-6.848.068-10.291-.248-5.292-.068-10.6-.068-16.064a21.371,21.371,0,0,0-7.652-2.368v110.34l-3.33,3.33h-6.186c-1.7-2.691-3.082-5.48-3.082-8.832q.034-28.673.03-57.339a5.656,5.656,0,0,1,.714-3.586,4.938,4.938,0,0,0,.135-4.164c-1.481-3.059-.8-6.2-.827-9.283-.1-11.561-.038-23.129-.038-34.848-2.307-.879-4.878-1.143-6.991-2.541-1.218,1.255-.691,2.593-.691,3.766q-.056,52.283.03,104.567c.007,2.458-.413,4.457-2.631,5.57s-4.548,1.8-6.908.068c-1.09-.8-2.728-3.232-1.992-3.976,1.729-1.781.2-3.27-.226-4.548a16.873,16.873,0,0,1-.842-5.427c.015-10.764.128-21.528-.06-32.285a23.2,23.2,0,0,1,2.112-9.276c1.436-3.548,1.428-3.856-2.045-5.675,0-5.728-.015-11.493.023-17.266,0-.894-.428-1.954.579-2.638a1.083,1.083,0,0,0,.338-1.293c-.436-1.616-1.293-3.12-.955-4.909.278-1.488,1.323-2.766.992-4.42-1.571-8.005-.842-16.109-.962-24.174-.022-1.751-.812-2.436-2.5-2.744a37.478,37.478,0,0,1-5.089-1.669V413.089l-3.511,3.51c-1.827-.3-3.8.263-6.029-.812a5.215,5.215,0,0,1-2.977-4.179c-.293-1.872-.857-4.044.586-5.953a2.906,2.906,0,0,0,.2-2.285c-1.263-3.931-1.586-7.825.023-11.749a1.289,1.289,0,0,0,0-.947c-1.6-3.12-.789-6.134-.135-9.359.421-2.1.849-4.608-.714-6.863-.6-.872-.1-2.5-.1-3.789V299.352l-6.75-2.571v5.044c0,31.969-.045,63.931.083,95.892.015,2.571-1.308,4.8-1.03,7.306.068.624-.466.782-.684,1.173-1.127,2.052-3.458,1.812-5.2,2.586-1.428.631-2.826-.782-4.037-1.654a25.046,25.046,0,0,1-2.571-2.526V292.474l-11.456-3.383V396.68c-.511.511-.857.842-1.188,1.188-1.2,1.248-2.623,2.5-4.315,2.255a6.792,6.792,0,0,1-4.879-3.082c-1.1-2.037-2.518-4.021-2.39-6.735.271-5.45.038-10.922.113-16.379.015-1.345-.428-2.729.752-4.059a3.544,3.544,0,0,0,.105-3.217c-1.533-2.864-.834-5.871-.849-8.795q-.113-28.188-.008-56.376c.008-2.774-.376-5.532.782-8.336a5.153,5.153,0,0,0-.481-5.006c-.556-.744-.316-2.1-.473-3.428l-11.238-3.292V389.967c-1.4.97-1.939,2.917-3.961,2.533-1.345-.255-2.526,1.158-4.1.12-.639-.428-1.984-.331-2.308-1.225-.406-1.127-1.526-1.924-1.39-3.277.579-5.863-1.376-11.546-1.045-17.439.368-6.4.03-12.846.12-19.266.03-1.969-.571-4.007.842-5.931a3.494,3.494,0,0,0,0-3.247c-1.473-2.082-.827-4.285-.842-6.412-.075-11.561-.113-23.129.008-34.69.038-4.044-.594-8.118.812-12.17.647-1.864.045-4.142.128-6.224.083-1.887-1.789-3.383-.827-5.344-1.534-.579-2.684-1.774-4.352-1.511-1.443.233-2.368-1.7-4.081-.865-.9.789-.368,1.984-.368,3.022q-.045,47.458-.052,94.923c0,1.376.353,2.774-.436,4.149-.924,1.6-1.556,3.608-3.661,3.766-2.593.2-5.5.669-7.494-1.541a8.611,8.611,0,0,1-1.887-5.938c.03-4.66.008-9.321.008-13.974,0-5.788-.075-11.568.038-17.349.053-2.45-.654-4.991.865-7.359a3.286,3.286,0,0,0,.007-2.811c-1.571-2.849-.842-5.863-.864-8.787-.1-11.884.18-23.776-.128-35.66-.173-6.833.872-13.538,1.09-20.318.083-2.488,1.631-4.5,3.1-6.4,2.413-3.127,6.073-4.705,9.17-6.953,3.894-2.826,8.111-5.2,12.177-7.78.263-.165.594-.361.691-.624,1.5-3.969,5.54-5.044,8.457-7.382a27.478,27.478,0,0,1,3.713-2.668c2.338-1.293,4.134-3.307,7.058-3.954,3.142-.692,5.931-2.871,8.479-5.021a29.228,29.228,0,0,1,3.991-3.135,27.127,27.127,0,0,0,6.149-5.006c2.082-2.27,4.217-4.54,7.554-5.021a2.645,2.645,0,0,0,1.428-1.15c1.6-2.225,4.345-3.022,6.149-5.044a4.519,4.519,0,0,1,3.2-1.376,4.042,4.042,0,0,0,4.33-2.909c.586-1.571,1.917-1.751,3.014-2.571A67.092,67.092,0,0,1,305.227,188.7c-4.007-3.465-7.179-7.5-10.486-11.516a13.1,13.1,0,0,1-1.563-2.759,39.9,39.9,0,0,0-4.2-7.4c-3.232-4.134-4.172-9.216-5.713-14.011-1.323-4.112-2.09-8.4-3.773-12.418a2.62,2.62,0,0,1-.128-1.383c.669-3.811-1.015-7.389-1.165-11.162-.09-2.2-1.556-4.871-.609-6.75a11.69,11.69,0,0,0,.556-8.3c-.707-2.691-.316-5.269-.767-7.848-.4-2.285,1.173-4.134,1.037-6.352-.143-2.24-.038-4.5-.022-6.743a1.635,1.635,0,0,1,.165-.887c2.195-3.187,1.594-6.825,1.8-10.358.113-1.962-.639-3.916.782-5.961,1.022-1.488-.774-4.074,1.09-5.773-.624-3.5,1.466-6.72.97-10.208a7.781,7.781,0,0,1,1.481-5.615,173.223,173.223,0,0,1,21.776,7.908c6.209,2.781,12.8,4.923,18.461,9.05,2.834,2.067,6.427,3.119,9.381,5.2.233.165.654.158.8.368,2.759,4,7.352,5.547,11.178,8.013,1.917,1.24,3.12,3.51,5.578,3.9,3.443,3.728,7.81,6.4,11.223,10.193,7.577,8.419,13.388,17.958,18.364,28.06.5,4.209,2.3,8.073,3.142,12.23,1.1,5.36.308,10.666.955,16.575,1.774-1.774,3.277-3.262,4.758-4.766a60.543,60.543,0,0,1,12.711-10.028,17.031,17.031,0,0,0,2.451-2.232c2.654-2.353,4.586-5.608,8.389-6.525.534-.128.932-.849,1.376-1.315,4.39-4.675,9.93-7.352,15.958-9.163.429-.128.925.105,1.3-.368,3.766-4.773,9.7-5.239,14.823-7.246,1.308-.511,2.691-1.624,4.382-1.082,1.624.526,2.947-.609,4.412-.962,4.706-1.12,9.524-1.744,14.26-2.668,3.172-.609,6.916-1.293,10.185.722.346.218.94.038,1.421.03,5.427-.12,10.734.4,15.672,2.886,3.172-.459,5.3,2.323,7.983,2.721,2.879.436,4.976,2.112,7.487,2.954,3.037,1.015,4.863,3.232,7.021,5.247a2.717,2.717,0,0,1-2.338,1.661c-5.435,1.173-10.967,2.142-16.191,3.969-2.518.887-5.187,1.158-7.7,2.338-2.315,1.09-5.134,1.646-7.637,2.5s-5.1,1.586-7.562,2.661c-3.668,1.6-7.57,2.669-11.238,4.27-6.8,2.977-13.605,5.976-20.228,9.328a184.834,184.834,0,0,0-22.5,13.147,177.524,177.524,0,0,0-16.913,12.816c-2.323,2.075-4.706,4.119-7.021,6.224a2.422,2.422,0,0,0-.669,3.277c1.285.579,1.8-.466,2.368-1.12,4.533-5.3,10.328-9.171,15.665-13.493a124.924,124.924,0,0,1,17.018-11.193c7.757-4.412,15.658-8.674,23.8-12.313,5.8-2.593,11.749-4.976,17.755-7.179,6.7-2.466,13.463-4.736,20.265-6.893,4.127-1.308,8.329-2.39,12.5-3.563,3.45-.977,7.043-1.4,10.388-2.841.8-.346,1.894-.053,2.932-.053,1.218,2.413-.339,4.488-.97,6.54-1.616,5.247-3.548,10.4-5.442,15.567-.458,1.248-1.346,2.33-1.887,3.555-1.436,3.255-2.586,6.66-4.225,9.81a177.5,177.5,0,0,1-11.9,19.641c-2.767,3.946-5.518,7.923-9.171,11.155-1.879,1.654-2.751,4.127-4.758,5.75-6.209,5.006-12.147,10.358-19.16,14.274-.511.286-1.09.458-2.135.894,4.1,1.21,7.787,2.405,11.531,3.383,5.946,1.563,11.952,2.879,17.867,4.563,3.037.865,6.179,1.353,9.2,2.24,5.044,1.473,10.261,2.247,15.274,3.819,4.067,1.285,5.164,2.684,5.164,6.931q.022,60.954.007,121.908c0,2.729-.609,4.66-3.375,6.344-4.074,2.473-7.442,6.073-11.245,9.02-4.63,3.593-9.449,6.953-13.771,10.929-2.789.519-3.8,3.435-6.3,4.555-2.187.977-3.871,3.067-5.8,4.638-1.8,1.466-3.42,3.45-5.48,4.194-2.375.857-2.887,3.909-5.585,4-2.9,3.3-6.735,5.442-10.11,8.163-4.946,4-9.689,8.306-14.959,11.832-2.308,1.541-4.292,3.458-6.494,5.066-5.7,4.164-11.065,8.795-16.875,12.846a54.411,54.411,0,0,0-5.322,4.5A10.216,10.216,0,0,1,408.035,445.427Zm100.6-91.811c.481-3.277-.669-6.472.992-9.471a3.259,3.259,0,0,0-.008-2.811c-1.435-2.21-.94-4.585-.849-6.863.421-10.3-1.052-20.634.842-30.909a11.271,11.271,0,0,0-.887-7.772c.489-4.345-1.007-8.825.924-13.1a4.138,4.138,0,0,0,.015-2.383c-1.278-5.871-1.285-7.449.008-13.651.12-.609.248-1.548-.083-1.857-1.443-1.33-.8-2.984-.834-4.48-.09-3.8-.03-7.592-.03-11.839l-91.352,74.785V425.545a18.881,18.881,0,0,1,6.164-4.42,17.708,17.708,0,0,0,7.066-4.991,18.319,18.319,0,0,1,5.5-4.217,34.037,34.037,0,0,0,7.622-5.976c3.8-3.8,7.494-7.7,11.854-10.884,1.225-.887,2.428-2.24,3.773-2.428a4.725,4.725,0,0,0,4.1-3.217,3.094,3.094,0,0,1,1.157-1.421,36.844,36.844,0,0,0,8.382-6.495,2.824,2.824,0,0,1,1.2-.594c3.991-1.421,5.382-2.511,8.11-5.8a13.736,13.736,0,0,1,5.134-3.841c1.714-.752,3.33-1.413,4.39-3.5.872-1.714,2.954-3.052,4.713-4.382,1.654-1.248,3.6-1.548,5.209-2.774C504.469,358.525,505.994,355.4,508.633,353.616ZM380.914,212.435c-3.623,2.969-5.585,7.3-7.675,11.516a24.552,24.552,0,0,0-2.18,9.637c-.308,6.382-.955,12.9,1.248,19.168,3.4,0,6.773.105,10.14-.03,3.3-.12,6.367,1.691,9.719,1.007,3.653-.752,7.051,1.458,10.681.955,1.526,1.571,3.668.413,5.3,1.165,3.7,1.7,7.69,2.383,11.493,3.668,5.916,1.992,12.012,3.638,17.62,6.3,5.863,2.781,11.643,6,15.943,10.929,3.819-3.135,7.442-6.3,11.275-9.231,4.45-3.413,8.456-7.389,12.921-10.779,2.263-1.721,4.1-3.984,6.442-5.4,2.06-1.24,3.292-3.42,5.42-4.3,2.067-.857,2.924-3.165,5.217-3.713,2.42-.571,2.774-3.443,4.683-4.728.541-.376,1.684.263,1.7-1.466-1.571,1.428-1.624-.707-2.864-.827-7.081-.7-13.666-3.533-20.6-4.976a147.537,147.537,0,0,1-14.342-3.683c-4.435-1.4-8.99-2.33-13.47-3.48-4.082-1.052-8.156-2.638-12.591-2.33-2.03.143-3.7,1.376-5.863,1.112-4.818-.579-9.719.571-14.568-.932-2.277-.714-4.833-.391-7.314-.887-4.3-.857-8.547-1.864-12.733-3.1A120.025,120.025,0,0,1,380.914,212.435Zm-43.207-7.006c-.857,1.346-2.526,1.887-3.811,2.932-4.841,3.946-10.268,7.043-15.349,10.644-4.074,2.887-8.471,5.352-12.35,8.464-4.9,3.924-10.4,6.923-15.327,10.787-3.074,2.413-6.72,4.112-9.757,6.57-4.871,3.946-10.381,6.946-15.319,10.779-3.345,2.593-7.021,4.751-10.915,7.352,5.021,1.518,9.366,3.946,14.372,4.285a251.394,251.394,0,0,0,24.918,8.4c3.45,1.015,6.637,2.668,10.118,3.5a39.358,39.358,0,0,0,6.1,1.466c1.421.113,1.315-1.932,2.18-2.631.5-.406,1.361-.5,1.947-1.075.286-.271,1.128-.135,1.24-.383,1.481-3.525,4.841-5.367,7.216-8.073a14.276,14.276,0,0,1,7.276-4.51A10.789,10.789,0,0,0,335,261.369a13.067,13.067,0,0,1,5.848-3.247c2.345-.549,4.533-1.8,7.066-1.511a3.53,3.53,0,0,0,2.12-.714,8.559,8.559,0,0,1,4.788-1.285c1.729.143,2.465-.819,2.578-2.518a16.429,16.429,0,0,0,.007-1.924c-.24-4.209.714-8.509-.962-12.606.474-5.638-1.067-11.388.962-16.935-.661-4.352,1.7-8.073,2.646-12.493-3.984,1.315-7.472-1.082-11.283-.722C345.066,207.759,341.518,206.632,337.707,205.429Z" transform="translate(-232.976 -53.258)" fill="#8fc31f"/>
        </g>
      </g>
      <g id="Group_121" data-name="Group 121" transform="translate(323.254 80.408)">
        <path id="Path_15" data-name="Path 15" d="M276.846,163.876V62.757H307.4l18.349,68.974,18.142-68.974h30.624V163.876H355.551v-79.6l-20.077,79.6H315.818l-20.008-79.6v79.6Z" transform="translate(-276.846 -62.757)" fill="#8fc31f"/>
        <path id="Path_16" data-name="Path 16" d="M341.156,118.148l19.317,3.241q-3.722,10.626-11.763,16.179t-20.112,5.55q-19.106,0-28.281-12.482-7.236-10-7.243-25.247,0-18.215,9.524-28.523t24.072-10.319q16.349,0,25.8,10.8t9.033,33.077H312.944q.207,8.625,4.686,13.415a14.675,14.675,0,0,0,11.182,4.8,11.832,11.832,0,0,0,7.651-2.488Q339.573,123.667,341.156,118.148Zm1.106-19.593q-.208-8.408-4.347-12.793A13.982,13.982,0,0,0,317.36,86q-4.147,4.624-4.071,12.551Z" transform="translate(-180.918 -40.341)" fill="#8fc31f"/>
        <path id="Path_17" data-name="Path 17" d="M305.26,163.876V62.757h19.386V163.876Z" transform="translate(-108.883 -62.757)" fill="#8fc31f"/>
        <path id="Path_18" data-name="Path 18" d="M329.788,90.559l-17.582-3.172q2.955-10.626,10.208-15.73,7.236-5.111,21.515-5.107,12.979,0,19.324,3.076t8.929,7.8q2.582,4.717,2.585,17.347l-.207,22.621a78.4,78.4,0,0,0,.933,14.244,41.226,41.226,0,0,0,3.484,9.828H359.8c-.5-1.279-1.127-3.193-1.859-5.723-.325-1.147-.553-1.907-.691-2.274a35.1,35.1,0,0,1-10.623,7.243,30.549,30.549,0,0,1-12.074,2.412q-11.31,0-17.831-6.137a20.426,20.426,0,0,1-6.518-15.523,20.855,20.855,0,0,1,2.965-11.072,19.394,19.394,0,0,1,8.314-7.45q5.349-2.592,15.419-4.52,13.581-2.54,18.826-4.755V91.734q0-5.588-2.758-7.969t-10.415-2.384q-5.173,0-8.072,2.039T329.788,90.559Zm25.938,15.723a121.294,121.294,0,0,1-11.8,2.972q-8.065,1.721-10.547,3.38a8.072,8.072,0,0,0-3.794,6.828,9.469,9.469,0,0,0,3.034,7.029,10.564,10.564,0,0,0,7.727,2.972,16.823,16.823,0,0,0,10-3.449,12.169,12.169,0,0,0,4.623-6.421q.757-2.478.753-9.448Z" transform="translate(-79.676 -40.341)" fill="#8fc31f"/>
      </g>
      <text id="You_are_what_you_Eat" data-name="You are what you Eat" transform="translate(327.553 234.546)" fill="#8fc31f" font-size="30" font-family="SegoeUI, Segoe UI"><tspan x="0" y="0">You are what you Eat</tspan></text>
      <text id="蔬果箱訂閱" transform="translate(323.749 304.024)" fill="#8fc31f" font-size="56" font-family="YuGothicUI-Regular, Yu Gothic UI"><tspan x="0" y="0">蔬果箱訂閱</tspan></text>
    </g>
  </g>
</svg>
