<svg xmlns="http://www.w3.org/2000/svg" xmlns:xlink="http://www.w3.org/1999/xlink" width="2696" height="715" viewBox="0 0 2696 715">
  <defs>
    <clipPath id="clip-Artboard_3">
      <rect width="2696" height="715"/>
    </clipPath>
  </defs>
  <g id="Artboard_3" data-name="Artboard – 3" clip-path="url(#clip-Artboard_3)">
    <rect width="2696" height="715" fill="#fff"/>
    <g id="Group_182" data-name="Group 182" transform="translate(-292.969 -736.082)">
      <g id="Union_1" data-name="Union 1" transform="translate(328.969 788.082)" fill="#f7f9f2">
        <path d="M 2471.9404296875 610 L 153.0633392333984 610 C 142.8126678466797 610 132.5690002441406 608.968017578125 122.6166687011719 606.9323120117188 C 112.9186630249023 604.9486694335938 103.3789978027344 601.9886474609375 94.26333618164063 598.1346435546875 C 85.31266784667969 594.350341796875 76.67966461181641 589.6666870117188 68.60399627685547 584.2130126953125 C 60.60433197021484 578.8109741210938 53.08200073242188 572.6069946289063 46.24533462524414 565.773681640625 C 39.40900039672852 558.9403076171875 33.20233154296875 551.4210205078125 27.79800033569336 543.4249877929688 C 22.34233283996582 535.3526611328125 17.65633392333984 526.7233276367188 13.87033367156982 517.7766723632813 C 10.01500034332275 508.6646728515625 7.053666591644287 499.1293334960938 5.068999767303467 489.4353332519531 C 3.032666683197021 479.4873352050781 2 469.2479858398438 2 459.0016784667969 C 2 448.7553405761719 3.032666683197021 438.5156555175781 5.068999767303467 428.5676574707031 C 7.053666591644287 418.8736572265625 10.01500034332275 409.3380126953125 13.87033367156982 400.226318359375 C 17.65633392333984 391.2793273925781 22.34233283996582 382.649658203125 27.79800033569336 374.5769958496094 C 33.20233154296875 366.5809936523438 39.40900039672852 359.0613403320313 46.24533462524414 352.2276611328125 C 53.08200073242188 345.3940124511719 60.60433197021484 339.1900024414063 68.60399627685547 333.7876586914063 C 76.67966461181641 328.3340148925781 85.31266784667969 323.6499938964844 94.26333618164063 319.8656616210938 C 103.3789978027344 316.0113220214844 112.9186630249023 313.0513305664063 122.6166687011719 311.0676574707031 C 132.5690002441406 309.0320129394531 142.8126678466797 307.9996643066406 153.0633392333984 307.9996643066406 L 1006.377014160156 307.9996643066406 L 1008.377014160156 307.9996643066406 L 1008.377014160156 305.9996643066406 C 1008.377014160156 285.3723449707031 1010.455688476563 264.7586669921875 1014.5556640625 244.7310028076172 C 1018.551330566406 225.2136688232422 1024.512939453125 206.0153350830078 1032.275634765625 187.6699981689453 C 1039.897338867188 169.6573333740234 1049.331298828125 152.2839965820313 1060.31494140625 136.0323333740234 C 1071.194946289063 119.9343338012695 1083.689697265625 104.7966690063477 1097.452392578125 91.03966522216797 C 1111.214965820313 77.28266906738281 1126.358642578125 64.79266357421875 1142.463012695313 53.91733169555664 C 1158.721313476563 42.9379997253418 1176.10205078125 33.50799942016602 1194.121948242188 25.88899993896484 C 1212.474975585938 18.12966728210449 1231.6806640625 12.17000007629395 1251.206298828125 8.176333427429199 C 1271.241943359375 4.078000068664551 1291.864379882813 2 1312.5 2 C 1333.135620117188 2 1353.758056640625 4.078000068664551 1373.793701171875 8.176333427429199 C 1393.3193359375 12.17000007629395 1412.525024414063 18.12966728210449 1430.878051757813 25.88899993896484 C 1448.89794921875 33.50799942016602 1466.278686523438 42.9379997253418 1482.536987304688 53.91733169555664 C 1498.640991210938 64.79266357421875 1513.785034179688 77.28266906738281 1527.547607421875 91.03966522216797 C 1541.310302734375 104.7966690063477 1553.805053710938 119.9343338012695 1564.684692382813 136.0323333740234 C 1575.668701171875 152.2839965820313 1585.102294921875 169.6573333740234 1592.723999023438 187.6699981689453 C 1600.486694335938 206.0153350830078 1606.448608398438 225.2136688232422 1610.443969726563 244.7310028076172 C 1614.5439453125 264.7586669921875 1616.622680664063 285.3723449707031 1616.622680664063 305.9996643066406 L 1616.622680664063 307.9996643066406 L 1618.622680664063 307.9996643066406 L 2471.9404296875 307.9996643066406 C 2482.19091796875 307.9996643066406 2492.4345703125 309.0320129394531 2502.38671875 311.0676574707031 C 2512.084716796875 313.0513305664063 2521.6240234375 316.0113220214844 2530.73974609375 319.8656616210938 C 2539.68994140625 323.6499938964844 2548.322998046875 328.3340148925781 2556.3984375 333.7876586914063 C 2564.397705078125 339.1900024414063 2571.919921875 345.3940124511719 2578.75634765625 352.2276611328125 C 2585.59228515625 359.0613403320313 2591.798583984375 366.5809936523438 2597.202880859375 374.5769958496094 C 2602.65869140625 382.649658203125 2607.34423828125 391.2789916992188 2611.1298828125 400.2260131835938 C 2614.9853515625 409.3380126953125 2617.94677734375 418.8736572265625 2619.930908203125 428.5676574707031 C 2621.96728515625 438.5156555175781 2623 448.7553405761719 2623 459.0016784667969 C 2623 469.2479858398438 2621.96728515625 479.4873352050781 2619.930908203125 489.4353332519531 C 2617.94677734375 499.1293334960938 2614.9853515625 508.6646728515625 2611.1298828125 517.7766723632813 C 2607.34423828125 526.7233276367188 2602.65869140625 535.3526611328125 2597.202880859375 543.4249877929688 C 2591.798583984375 551.4210205078125 2585.59228515625 558.9403076171875 2578.75634765625 565.773681640625 C 2571.919921875 572.6073608398438 2564.397705078125 578.8109741210938 2556.398681640625 584.2130126953125 C 2548.322998046875 589.6666870117188 2539.68994140625 594.350341796875 2530.73974609375 598.1346435546875 C 2521.6240234375 601.9886474609375 2512.084716796875 604.9486694335938 2502.38671875 606.9323120117188 C 2492.4345703125 608.968017578125 2482.19091796875 610 2471.9404296875 610 Z" stroke="none"/>
        <path d="M 2471.9404296875 608 C 2482.056640625 608 2492.165283203125 606.981689453125 2501.986083984375 604.97265625 C 2511.5546875 603.0156860351563 2520.966552734375 600.094970703125 2529.960693359375 596.2926635742188 C 2538.792236328125 592.5586547851563 2547.310546875 587.93701171875 2555.279296875 582.5556640625 C 2563.173095703125 577.2249755859375 2570.595947265625 571.1026611328125 2577.34228515625 564.3593139648438 C 2584.08837890625 557.6156616210938 2590.212890625 550.1956787109375 2595.5458984375 542.3049926757813 C 2600.929443359375 534.3400268554688 2605.552734375 525.8250122070313 2609.2880859375 516.997314453125 C 2613.092041015625 508.0069885253906 2616.013671875 498.5989990234375 2617.9716796875 489.0343322753906 C 2619.98095703125 479.2179870605469 2621 469.1136779785156 2621 459.0016784667969 C 2621 448.8896789550781 2619.98095703125 438.7853393554688 2617.9716796875 428.968994140625 C 2616.013671875 419.4039916992188 2613.092041015625 409.9960021972656 2609.2880859375 401.0056762695313 C 2605.552734375 392.1773376464844 2600.929443359375 383.6623229980469 2595.5458984375 375.6969909667969 C 2590.212890625 367.8063354492188 2584.08837890625 360.385986328125 2577.34228515625 353.642333984375 C 2570.595947265625 346.898681640625 2563.173095703125 340.7760009765625 2555.279052734375 335.4450073242188 C 2547.310546875 330.0636596679688 2538.792236328125 325.4416809082031 2529.960693359375 321.7076721191406 C 2520.966552734375 317.9049987792969 2511.5546875 314.9843444824219 2501.985595703125 313.0270080566406 C 2492.165283203125 311.0183410644531 2482.056640625 309.9996643066406 2471.9404296875 309.9996643066406 L 1618.622680664063 309.9996643066406 L 1614.622680664063 309.9996643066406 L 1614.622680664063 305.9996643066406 C 1614.622680664063 285.5069885253906 1612.5576171875 265.0280151367188 1608.484619140625 245.1323394775391 C 1604.515625 225.7440032958984 1598.593383789063 206.67333984375 1590.88232421875 188.4496612548828 C 1583.310668945313 170.5556640625 1573.93896484375 153.2966613769531 1563.027709960938 137.1519927978516 C 1552.219360351563 121.1600036621094 1539.806274414063 106.1213302612305 1526.133666992188 92.45433044433594 C 1512.461059570313 78.78700256347656 1497.416381835938 66.37899780273438 1481.417724609375 55.57500076293945 C 1465.266357421875 44.66766738891602 1448.000366210938 35.29966735839844 1430.098999023438 27.73133277893066 C 1411.868041992188 20.02300071716309 1392.788940429688 14.10299968719482 1373.392944335938 10.135666847229 C 1353.488647460938 6.064333438873291 1333.001342773438 4 1312.5 4 C 1291.998657226563 4 1271.511352539063 6.064333438873291 1251.607055664063 10.135666847229 C 1232.211059570313 14.10299968719482 1213.131958007813 20.02300071716309 1194.900634765625 27.73133277893066 C 1176.999633789063 35.29966735839844 1159.733642578125 44.66766738891602 1143.582275390625 55.57500076293945 C 1127.583618164063 66.37899780273438 1112.538940429688 78.78700256347656 1098.866333007813 92.45433044433594 C 1085.193725585938 106.1213302612305 1072.780639648438 121.1600036621094 1061.972045898438 137.1523284912109 C 1051.060668945313 153.2966613769531 1041.68896484375 170.5556640625 1034.117309570313 188.4496612548828 C 1026.406372070313 206.67333984375 1020.484008789063 225.7440032958984 1016.515014648438 245.1323394775391 C 1012.442016601563 265.0280151367188 1010.377014160156 285.5069885253906 1010.377014160156 305.9996643066406 L 1010.377014160156 309.9996643066406 L 1006.377014160156 309.9996643066406 L 153.0633392333984 309.9996643066406 C 142.9470062255859 309.9996643066406 132.8379974365234 311.0183410644531 123.0176696777344 313.0270080566406 C 113.4486694335938 314.9843444824219 104.0363311767578 317.9049987792969 95.04233551025391 321.7076721191406 C 86.21033477783203 325.4416809082031 77.69200134277344 330.0636596679688 69.72333526611328 335.4453430175781 C 61.82899856567383 340.7760009765625 54.40566635131836 346.898681640625 47.65933227539063 353.642333984375 C 40.91299819946289 360.385986328125 34.78833389282227 367.8063354492188 29.45499992370605 375.6969909667969 C 24.0716667175293 383.6623229980469 19.44799995422363 392.1776733398438 15.71233367919922 401.0056762695313 C 11.90833377838135 409.9960021972656 8.986666679382324 419.4039916992188 7.028333187103271 428.968994140625 C 5.019000053405762 438.7853393554688 4 448.8896789550781 4 459.0016784667969 C 4 469.1136779785156 5.019000053405762 479.2179870605469 7.028333187103271 489.0343322753906 C 8.986666679382324 498.5989990234375 11.90833377838135 508.0069885253906 15.71233367919922 516.997314453125 C 19.44799995422363 525.8250122070313 24.0716667175293 534.3400268554688 29.45499992370605 542.3049926757813 C 34.78799819946289 550.1956787109375 40.91299819946289 557.6156616210938 47.65933227539063 564.3593139648438 C 54.40566635131836 571.1026611328125 61.82899856567383 577.2246704101563 69.72299957275391 582.5556640625 C 77.69166564941406 587.93701171875 86.21033477783203 592.5586547851563 95.04233551025391 596.2926635742188 C 104.0363311767578 600.094970703125 113.4486694335938 603.0156860351563 123.0176696777344 604.97265625 C 132.8379974365234 606.981689453125 142.9470062255859 608 153.0633392333984 608 L 2471.9404296875 608 M 2471.9404296875 612 L 153.0633392333984 612 C 68.5296630859375 612 0 543.5013427734375 0 459.0016784667969 C 0 374.5020141601563 68.5296630859375 305.9996643066406 153.0633392333984 305.9996643066406 L 1006.377014160156 305.9996643066406 C 1006.377014160156 137.0006713867188 1143.432983398438 0 1312.5 0 C 1481.567016601563 0 1618.622680664063 137.0006713867188 1618.622680664063 305.9996643066406 L 2471.9404296875 305.9996643066406 C 2556.4736328125 305.9996643066406 2625 374.5020141601563 2625 459.0016784667969 C 2625 543.5013427734375 2556.4736328125 612 2471.9404296875 612 Z" stroke="none" fill="#8cb808"/>
      </g>
      <g id="Group_159" data-name="Group 159" transform="translate(1536.452 855.739)">
        <g id="Group_153" data-name="Group 153" transform="translate(0 0)">
          <path id="Path_20" data-name="Path 20" d="M126.225,280.518c-2.574-1.793-3.071-4.479-3.093-7.293-.048-6.747-.032-13.495.011-20.237.005-.958-.423-2.023.535-2.879a1.281,1.281,0,0,0,.091-1.268c-1.2-1.407-.61-3.039-.621-4.548q-.088-15.434-.005-30.868c.011-1.857-.251-3.692.54-5.6a4.5,4.5,0,0,0-.353-4.211c-.444-.621-.187-1.316-.2-1.969-.037-2.4-.016-4.794-.016-7.186-1.493-.6-3.125-.754-4.527-1.643-.6.631-.257,1.471-.257,2.221q-.032,37.562-.037,75.119a5.513,5.513,0,0,1-.546,3.21c-1.53,2.547-5.094,3.4-7.047,1.225a6.181,6.181,0,0,1-1.311-4.238c.016-3.772.005-7.545.005-11.322,0-5.6.1-11.2-.043-16.8-.064-2.7,1.471-5.329.653-7.924-.845-2.675-.519-5.319-.573-7.978-.032-1.279-.385-2.616.583-3.879a2.863,2.863,0,0,0,.027-2.333c-1.386-3.633-.273-7.384-.647-11.055,1.364-2.44.161-4.869.048-7.32-.177-3.767-.048-7.545-.048-11.435a15.14,15.14,0,0,0-5.447-1.685v78.538l-2.37,2.376h-4.4a11.611,11.611,0,0,1-2.194-6.287q.024-20.41.021-40.816a4.025,4.025,0,0,1,.508-2.552,3.516,3.516,0,0,0,.1-2.964c-1.054-2.183-.573-4.414-.589-6.608-.07-8.229-.027-16.464-.027-24.806-1.643-.626-3.473-.813-4.982-1.809-.861.894-.487,1.841-.487,2.681q-.04,37.217.021,74.434c0,1.75-.3,3.173-1.873,3.965s-3.237,1.279-4.917.043c-.776-.573-1.942-2.3-1.423-2.831,1.236-1.263.15-2.322-.155-3.237a11.831,11.831,0,0,1-.6-3.858c.011-7.662.091-15.324-.043-22.981a16.406,16.406,0,0,1,1.5-6.6c1.022-2.526,1.017-2.745-1.455-4.04,0-4.077-.011-8.187.011-12.291.005-.642-.3-1.391.417-1.878a.771.771,0,0,0,.241-.92c-.31-1.15-.92-2.226-.68-3.5.2-1.054.936-1.964.706-3.141-1.118-5.7-.6-11.467-.685-17.208-.016-1.252-.583-1.734-1.782-1.953a26.684,26.684,0,0,1-3.622-1.188V257.5l-2.5,2.5c-1.3-.214-2.7.187-4.291-.578a3.713,3.713,0,0,1-2.119-2.975c-.209-1.332-.61-2.884.417-4.238a2.046,2.046,0,0,0,.134-1.627,11.819,11.819,0,0,1,.021-8.363.891.891,0,0,0-.005-.674c-1.134-2.221-.556-4.366-.091-6.662.3-1.5.6-3.28-.508-4.891-.428-.615-.07-1.782-.07-2.691V176.537l-4.8-1.83v3.59c0,22.751-.032,45.508.059,68.259.011,1.825-.936,3.414-.738,5.2.054.444-.332.556-.482.835-.8,1.461-2.461,1.29-3.7,1.841-1.017.449-2.017-.557-2.873-1.177a17.841,17.841,0,0,1-1.83-1.8V171.641l-8.155-2.408v76.585c-.364.358-.61.6-.845.845-.851.883-1.867,1.776-3.077,1.605a4.835,4.835,0,0,1-3.467-2.194c-.787-1.45-1.8-2.863-1.7-4.8.193-3.874.027-7.769.08-11.659.011-.952-.3-1.937.53-2.884a2.541,2.541,0,0,0,.08-2.29c-1.092-2.044-.6-4.179-.6-6.26q-.08-20.065-.005-40.131c.005-1.974-.268-3.938.556-5.934a3.682,3.682,0,0,0-.342-3.564c-.4-.53-.23-1.493-.337-2.445l-8-2.344v77.275c-1,.69-1.38,2.076-2.82,1.8-.958-.182-1.8.819-2.916.08-.455-.3-1.413-.23-1.643-.867-.289-.8-1.086-1.37-.99-2.338.412-4.168-.979-8.213-.744-12.408.262-4.559.016-9.144.086-13.714.021-1.4-.407-2.852.6-4.222a2.487,2.487,0,0,0,0-2.312c-1.049-1.482-.589-3.05-.6-4.564-.054-8.229-.08-16.464.005-24.694.027-2.884-.428-5.779.578-8.663.46-1.327.032-2.948.091-4.43.054-1.343-1.279-2.413-.589-3.8-1.1-.412-1.91-1.263-3.1-1.076-1.027.166-1.685-1.209-2.905-.621-.642.567-.262,1.418-.262,2.151q-.04,33.79-.037,67.575a5.365,5.365,0,0,1-.31,2.954c-.658,1.14-1.108,2.568-2.611,2.681-1.841.139-3.911.471-5.329-1.1a6.135,6.135,0,0,1-1.343-4.232c.021-3.312.005-6.63.005-9.947,0-4.115-.054-8.229.027-12.344.037-1.744-.471-3.553.615-5.238a2.321,2.321,0,0,0,0-2c-1.113-2.028-.594-4.174-.61-6.255-.07-8.465.128-16.93-.091-25.384-.128-4.864.621-9.637.776-14.463.059-1.771,1.161-3.205,2.2-4.559,1.718-2.231,4.323-3.35,6.528-4.955,2.766-2.007,5.773-3.7,8.668-5.533.187-.118.423-.257.492-.444,1.065-2.825,3.943-3.6,6.02-5.254a19.562,19.562,0,0,1,2.643-1.9c1.659-.92,2.943-2.354,5.019-2.814,2.242-.492,4.227-2.044,6.036-3.58a21.6,21.6,0,0,1,2.847-2.226,19.311,19.311,0,0,0,4.377-3.564c1.482-1.616,3-3.237,5.377-3.574a1.877,1.877,0,0,0,1.011-.819c1.145-1.584,3.1-2.151,4.382-3.59a3.217,3.217,0,0,1,2.279-.979,2.883,2.883,0,0,0,3.082-2.071c.412-1.118,1.364-1.247,2.146-1.83a47.639,47.639,0,0,1-12.473-8.149,64.642,64.642,0,0,1-7.464-8.192,9.319,9.319,0,0,1-1.113-1.964,28.416,28.416,0,0,0-2.991-5.271c-2.3-2.943-2.97-6.56-4.072-9.974-.942-2.927-1.482-5.982-2.681-8.839a1.814,1.814,0,0,1-.091-.985c.476-2.718-.722-5.265-.835-7.946-.059-1.568-1.1-3.467-.428-4.8a8.292,8.292,0,0,0,.391-5.907c-.5-1.916-.219-3.756-.54-5.586-.284-1.627.835-2.948.733-4.521-.1-1.595-.021-3.2-.016-4.8a1.239,1.239,0,0,1,.123-.631c1.557-2.269,1.134-4.853,1.279-7.373.08-1.391-.449-2.782.556-4.238.733-1.059-.551-2.9.781-4.109-.444-2.488,1.043-4.784.69-7.266a5.534,5.534,0,0,1,1.054-4,124.186,124.186,0,0,1,15.5,5.634c4.42,1.98,9.112,3.5,13.141,6.442,2.017,1.471,4.575,2.221,6.672,3.7.171.118.465.112.567.262,1.964,2.847,5.233,3.944,7.962,5.7,1.364.883,2.221,2.5,3.97,2.777,2.445,2.649,5.559,4.553,7.989,7.256a86.542,86.542,0,0,1,13.072,19.974c.353,3,1.637,5.747,2.237,8.706.776,3.815.219,7.593.68,11.793,1.263-1.263,2.328-2.322,3.387-3.387a43.09,43.09,0,0,1,9.048-7.138,12.137,12.137,0,0,0,1.744-1.589c1.883-1.68,3.264-3.992,5.971-4.644.38-.091.664-.6.979-.936a24.791,24.791,0,0,1,11.36-6.523c.305-.091.658.075.926-.268,2.681-3.392,6.9-3.724,10.546-5.153.936-.369,1.916-1.156,3.119-.771,1.161.375,2.1-.433,3.141-.685,3.355-.8,6.779-1.241,10.156-1.9,2.253-.433,4.923-.92,7.245.514.252.155.674.027,1.017.021A23.073,23.073,0,0,1,190.005,43.2c2.258-.326,3.772,1.648,5.683,1.937,2.049.31,3.542,1.5,5.329,2.1,2.162.722,3.462,2.3,5,3.735a1.934,1.934,0,0,1-1.664,1.183,96.065,96.065,0,0,0-11.525,2.825c-1.792.626-3.692.824-5.485,1.664a53.07,53.07,0,0,1-5.442,1.776c-1.776.6-3.628,1.129-5.378,1.894-2.611,1.14-5.388,1.9-8,3.039-4.842,2.119-9.685,4.254-14.4,6.64a131.566,131.566,0,0,0-16.015,9.358,127.117,127.117,0,0,0-12.045,9.123c-1.653,1.477-3.344,2.927-4.992,4.43a1.719,1.719,0,0,0-.476,2.333c.915.412,1.284-.332,1.685-.8,3.226-3.772,7.352-6.528,11.151-9.61a89.164,89.164,0,0,1,12.109-7.962c5.527-3.141,11.146-6.175,16.946-8.77,4.131-1.841,8.358-3.542,12.633-5.11,4.778-1.75,9.589-3.366,14.431-4.9,2.938-.931,5.929-1.7,8.893-2.536,2.461-.7,5.019-1,7.395-2.023a5.769,5.769,0,0,1,2.092-.037c.867,1.712-.241,3.194-.69,4.655-1.15,3.735-2.526,7.405-3.874,11.081-.326.888-.958,1.659-1.343,2.531-1.022,2.317-1.841,4.741-3.007,6.983a126.353,126.353,0,0,1-8.47,13.981,43.2,43.2,0,0,1-6.533,7.935c-1.332,1.182-1.953,2.943-3.382,4.1-4.42,3.558-8.647,7.373-13.639,10.161-.364.2-.776.326-1.52.631,2.921.867,5.543,1.718,8.208,2.413,4.232,1.113,8.508,2.049,12.719,3.248,2.156.615,4.393.963,6.549,1.589,3.59,1.054,7.3,1.6,10.873,2.724,2.895.915,3.676,1.91,3.676,4.933q.008,43.389.005,86.778a4.56,4.56,0,0,1-2.408,4.516c-2.895,1.76-5.292,4.323-8,6.421-3.3,2.558-6.726,4.949-9.8,7.78-1.985.364-2.7,2.445-4.484,3.243-1.557.7-2.756,2.183-4.125,3.3-1.279,1.043-2.435,2.456-3.906,2.986-1.691.6-2.049,2.782-3.97,2.847-2.065,2.349-4.794,3.874-7.2,5.811-3.521,2.847-6.9,5.913-10.648,8.422-1.643,1.1-3.055,2.456-4.623,3.606-4.056,2.964-7.876,6.26-12.012,9.144a38.012,38.012,0,0,0-3.788,3.2A7.292,7.292,0,0,1,126.225,280.518Zm71.609-65.354c.342-2.333-.476-4.607.706-6.742a2.32,2.32,0,0,0-.005-2c-1.022-1.573-.674-3.269-.6-4.891.3-7.325-.749-14.682.594-22A7.988,7.988,0,0,0,197.9,174c.348-3.1-.717-6.282.653-9.326a2.945,2.945,0,0,0,.016-1.7c-.91-4.179-.915-5.3,0-9.717.091-.433.177-1.108-.054-1.322-1.027-.947-.567-2.124-.594-3.189-.07-2.7-.021-5.4-.021-8.427L132.87,193.553v72.813a13.44,13.44,0,0,1,4.388-3.146,12.644,12.644,0,0,0,5.03-3.553,13.034,13.034,0,0,1,3.917-3,24.08,24.08,0,0,0,5.42-4.254,73.727,73.727,0,0,1,8.444-7.748c.872-.637,1.728-1.6,2.686-1.728a3.371,3.371,0,0,0,2.916-2.29,2.144,2.144,0,0,1,.824-1.011,26.08,26.08,0,0,0,5.961-4.623,2,2,0,0,1,.861-.423,10.744,10.744,0,0,0,5.768-4.131,9.838,9.838,0,0,1,3.66-2.734,5.349,5.349,0,0,0,3.125-2.493c.615-1.225,2.1-2.172,3.355-3.12,1.177-.888,2.563-1.1,3.708-1.974C194.869,218.659,195.956,216.433,197.834,215.164Zm-90.92-100.5c-2.574,2.114-3.97,5.2-5.458,8.192a17.426,17.426,0,0,0-1.552,6.865c-.225,4.543-.68,9.182.888,13.644,2.419,0,4.821.07,7.218-.021,2.349-.091,4.532,1.2,6.919.712,2.6-.53,5.019,1.043,7.6.68,1.081,1.124,2.611.3,3.772.835,2.627,1.209,5.468,1.7,8.181,2.611,4.211,1.418,8.55,2.59,12.542,4.484,4.174,1.98,8.288,4.265,11.349,7.78,2.718-2.231,5.292-4.484,8.021-6.571,3.168-2.429,6.025-5.265,9.2-7.673,1.611-1.225,2.916-2.836,4.586-3.842,1.466-.883,2.344-2.435,3.858-3.061,1.471-.61,2.081-2.258,3.713-2.643,1.723-.407,1.974-2.451,3.328-3.366.391-.268,1.2.187,1.209-1.043-1.113,1.017-1.15-.5-2.033-.589-5.04-.5-9.728-2.515-14.666-3.542a105.012,105.012,0,0,1-10.209-2.622c-3.157-1-6.4-1.659-9.589-2.477-2.905-.749-5.806-1.878-8.962-1.659-1.445.1-2.633.974-4.179.792-3.425-.412-6.913.407-10.364-.663-1.621-.508-3.441-.278-5.206-.631-3.061-.61-6.084-1.327-9.064-2.21A85.513,85.513,0,0,1,106.914,114.667ZM76.163,109.68c-.615.958-1.8,1.343-2.713,2.087-3.446,2.809-7.309,5.014-10.926,7.577-2.9,2.055-6.03,3.81-8.8,6.025-3.483,2.788-7.4,4.928-10.9,7.673-2.188,1.723-4.784,2.932-6.945,4.682-3.467,2.809-7.389,4.939-10.9,7.673-2.381,1.846-5,3.382-7.769,5.233,3.574,1.081,6.662,2.809,10.225,3.045a179.075,179.075,0,0,0,17.743,5.987c2.451.722,4.719,1.894,7.2,2.493a28.02,28.02,0,0,0,4.345,1.043c1.011.08.931-1.375,1.552-1.873.359-.289.968-.364,1.386-.765.2-.193.8-.1.878-.273,1.059-2.515,3.446-3.82,5.142-5.747a10.129,10.129,0,0,1,5.18-3.21,7.708,7.708,0,0,0,3.382-1.83,9.251,9.251,0,0,1,4.163-2.312c1.669-.391,3.221-1.284,5.03-1.076a2.56,2.56,0,0,0,1.509-.508,6.093,6.093,0,0,1,3.408-.915c1.231.1,1.755-.583,1.835-1.792a10.635,10.635,0,0,0,0-1.37c-.166-3,.514-6.057-.68-8.973.337-4.013-.76-8.106.685-12.061-.476-3.093,1.209-5.741,1.883-8.888-2.836.936-5.319-.77-8.031-.514C81.4,111.339,78.876,110.536,76.163,109.68Z" transform="translate(-1.611 -1.354)" fill="#8cb808"/>
        </g>
      </g>
    </g>
  </g>
</svg>
